# xmcd
#
# Track frame offsets:
#	150
#	16848
#	30316
#	45196
#	60883
#	78352
#	93905
#	110682
#	127930
#	140944
#	155048
#	172382
#	187419
#	204582
#	218791
#	233228
#	250934
#	264595
#	279479
#	295417
#	308771
#
# Disc length: 4332 seconds
#
# Revision: 1
# Processed by: cddbd v1.5.2PL0 Copyright (c) Steve Scherf et al.
# Submitted via: EZCDAudioConverter 7.0.7.1
#
DISCID=3110ea15
DTITLE=Hott Country Volume 263 CAN
DYEAR=2018
DGENRE=country
TTITLE0=Luke Bryan - Most People Are Good
TTITLE1=Jojo Mason - Edge Of The Night
TTITLE2=LoCash - Don't Get Better Than That
TTITLE3=Brothers Osborne - Shoot Me Straight
TTITLE4=The Road Hammers - All Your Favorite Bands
TTITLE5=Chris Janson - Drunk Girl
TTITLE6=Luke Combs - One Number Away
TTITLE7=Walker McGuire - Lost
TTITLE8=The Lovelocks - Staycation
TTITLE9=Wes Mack - House On Fire
TTITLE10=Alan Jackson - The Older I Get
TTITLE11=Josh Gracin - Nothin' Like Us
TTITLE12=Stephanie Quayle - Selfish
TTITLE13=Casey Donahew - Country Song
TTITLE14=Samara Yung - Highlights
TTITLE15=Jared Blake - Don't Let Her Be Gone
TTITLE16=AC Jones - Buses And Trains
TTITLE17=Raleigh Keegan - Lookin' Like That
TTITLE18=Smithfield - Hey Whiskey
TTITLE19=Amy Jack - Got Lonely Too Early
TTITLE20=Zach Stone - Four Letter Word
EXTD=
EXTT0=
EXTT1=
EXTT2=
EXTT3=
EXTT4=
EXTT5=
EXTT6=
EXTT7=
EXTT8=
EXTT9=
EXTT10=
EXTT11=
EXTT12=
EXTT13=
EXTT14=
EXTT15=
EXTT16=
EXTT17=
EXTT18=
EXTT19=
EXTT20=
PLAYORDER=
